<?xml version="1.0" encoding="utf-8"?>
<!-- Generator: Adobe Illustrator 19.0.0, SVG Export Plug-In . SVG Version: 6.00 Build 0)  -->
<svg height="16" width="16" version="1.1" id="Layer_1" xmlns="http://www.w3.org/2000/svg" x="0px" y="0px"
preserveAspectRatio="xMidYMid meet" viewBox="-18.75 -17.25 337.5 310.5" xml:space="preserve">
<style type="text/css">
.st0{fill:#2FAA09;}
</style>
<path id="XMLID_12_" class="st0" d="M300,62.7V0H0v62.7h17.5v150.5H0V276h300v-62.7h-19.9V62.7H300z M165,18.2h39v26.5h-39V18.2z
M245.5,62.7v150.5h-78.4V62.7H245.5z M24,18.2h39v26.5H24V18.2z M131.1,62.7v150.5H51.9V62.7H131.1z M62.4,256.4H24.6v-25.2h37.8
V256.4z M133.5,257.1h-39v-26.5h39V257.1z M133.5,44.5h-39V18.2h39V44.5z M204,257.1h-39v-26.5h39V257.1z M274,256.4h-37.8v-25.2
H274V256.4z M274.6,44.5h-39V18.2h39V44.5z"/>
</svg>