<?xml version="1.0" encoding="utf-8"?>
<!-- Generator: Adobe Illustrator 19.0.0, SVG Export Plug-In . SVG Version: 6.00 Build 0)  -->
<svg height="16" width="16" version="1.1" id="Layer_1" xmlns="http://www.w3.org/2000/svg" x="0px" y="0px"
preserveAspectRatio="xMidYMid meet" viewBox="-18.75 -18.625 337.5 335.25" xml:space="preserve">
<style type="text/css">
.st0{fill:#2FAA09;}
</style>
<path id="XMLID_178_" class="st0" d="M300,58.5v226.3c0,8.8-2,13.2-6,13.2H75.1c-4,0-6-4.4-6-13.2v-34.7c3.6,0.5,7.3,0.8,11,0.8
c25.2,0,47.9-10.4,64.4-27h109.1v-12.6h-98.7c5.4-7.9,9.5-16.6,12.2-26h86.5v-12.6h-83.8c0.5-4,0.9-8,0.9-12.2c0-4.4-0.4-8.7-1-13
h84v-12.6h-86.7c-2.8-9.4-7-18.2-12.6-26h99.2V96.3H143.7C127.4,80.1,104.8,70,80.1,70c-3.8,0-7.4,0.3-11,0.8V6c0-3.4,2.6-6,6-6h118
v58.5H300z M80.3,240.8C36,240.8,0,204.7,0,160.3s36-80.5,80.3-80.5s80.3,36.1,80.3,80.5S124.6,240.8,80.3,240.8z M69.7,132.3H91
v-22.8H69.7V132.3z M69.7,209.2H91v-65H69.7V209.2z"/>
</svg>