<?xml version="1.0" encoding="utf-8"?>
<!-- Generator: Adobe Illustrator 19.0.0, SVG Export Plug-In . SVG Version: 6.00 Build 0)  -->
<svg height="16" width="16" version="1.1" id="Layer_1" xmlns="http://www.w3.org/2000/svg" x="0px" y="0px"
preserveAspectRatio="xMidYMid meet" viewBox="-18.75 -15 337.5 270" xml:space="preserve">
<style type="text/css">
.st0{fill:#4CB1FF;}
</style>
<path id="XMLID_145_" class="st0" d="M227.8,58.4v63.8h-63.7V58.4H227.8 M241.9,44.3H150v92h91.9V44.3L241.9,44.3z M122.2,13.9
v108.5H13.8V13.9H122.2 M136,0H0v136.3h136V0L136,0z M77.8,162.1v63.8H14.1v-63.8H77.8 M91.9,148H0v92h91.9V148L91.9,148z
M182.4,162.1v63.8h-63.7v-63.8H182.4 M196.5,148h-91.9v92h91.9V148L196.5,148z M285.9,162.1v63.8h-63.7v-63.8H285.9 M300,148h-91.9
v92H300V148L300,148z"/>
</svg>