<?xml version="1.0" encoding="UTF-8"?>
<svg height="16" width="16" xmlns="http://www.w3.org/2000/svg" preserveAspectRatio="xMidYMid meet" viewBox="-2 -2 36 36" shape-rendering="crispEdges">
  <g fill="#2FAA09">
    <rect x="3" y="2" width="1" height="1" fill-opacity="0.314"/>
    <rect x="4" y="2" width="1" height="1" fill-opacity="0.878"/>
    <rect x="5" y="2" width="1" height="1"/>
    <rect x="6" y="2" width="1" height="1" fill-opacity="0.627"/>
    <rect x="9" y="2" width="1" height="1" fill-opacity="0.627"/>
    <rect x="10" y="2" width="4" height="1"/>
    <rect x="14" y="2" width="1" height="1" fill-opacity="0.627"/>
    <rect x="17" y="2" width="1" height="1" fill-opacity="0.627"/>
    <rect x="18" y="2" width="4" height="1"/>
    <rect x="22" y="2" width="1" height="1" fill-opacity="0.627"/>
    <rect x="25" y="2" width="1" height="1" fill-opacity="0.627"/>
    <rect x="26" y="2" width="1" height="1"/>
    <rect x="27" y="2" width="1" height="1" fill-opacity="0.878"/>
    <rect x="28" y="2" width="1" height="1" fill-opacity="0.314"/>
    <rect x="2" y="3" width="1" height="1" fill-opacity="0.314"/>
    <rect x="3" y="3" width="3" height="1"/>
    <rect x="6" y="3" width="1" height="1" fill-opacity="0.627"/>
    <rect x="9" y="3" width="1" height="1" fill-opacity="0.627"/>
    <rect x="10" y="3" width="4" height="1"/>
    <rect x="14" y="3" width="1" height="1" fill-opacity="0.627"/>
    <rect x="17" y="3" width="1" height="1" fill-opacity="0.627"/>
    <rect x="18" y="3" width="4" height="1"/>
    <rect x="22" y="3" width="1" height="1" fill-opacity="0.627"/>
    <rect x="25" y="3" width="1" height="1" fill-opacity="0.627"/>
    <rect x="26" y="3" width="3" height="1"/>
    <rect x="29" y="3" width="1" height="1" fill-opacity="0.314"/>
    <rect x="2" y="4" width="1" height="1" fill-opacity="0.878"/>
    <rect x="3" y="4" width="1" height="1"/>
    <rect x="4" y="4" width="1" height="1" fill-opacity="0.816"/>
    <rect x="5" y="4" width="1" height="1" fill-opacity="0.314"/>
    <rect x="26" y="4" width="1" height="1" fill-opacity="0.314"/>
    <rect x="27" y="4" width="1" height="1" fill-opacity="0.816"/>
    <rect x="28" y="4" width="1" height="1"/>
    <rect x="29" y="4" width="1" height="1" fill-opacity="0.878"/>
    <rect x="2" y="5" width="2" height="1"/>
    <rect x="4" y="5" width="1" height="1" fill-opacity="0.314"/>
    <rect x="27" y="5" width="1" height="1" fill-opacity="0.314"/>
    <rect x="28" y="5" width="2" height="1"/>
    <rect x="2" y="6" width="2" height="1" fill-opacity="0.627"/>
    <rect x="28" y="6" width="2" height="1" fill-opacity="0.627"/>
    <rect x="12" y="8" width="1" height="1" fill-opacity="0.627"/>
    <rect x="13" y="8" width="6" height="1"/>
    <rect x="19" y="8" width="1" height="1" fill-opacity="0.439"/>
    <rect x="2" y="9" width="2" height="1" fill-opacity="0.627"/>
    <rect x="11" y="9" width="1" height="1" fill-opacity="0.376"/>
    <rect x="12" y="9" width="8" height="1"/>
    <rect x="20" y="9" width="1" height="1" fill-opacity="0.314"/>
    <rect x="28" y="9" width="2" height="1" fill-opacity="0.627"/>
    <rect x="2" y="10" width="2" height="1"/>
    <rect x="10" y="10" width="1" height="1" fill-opacity="0.063"/>
    <rect x="11" y="10" width="9" height="1" fill-opacity="0.753"/>
    <rect x="20" y="10" width="1" height="1" fill-opacity="0.690"/>
    <rect x="28" y="10" width="2" height="1"/>
    <rect x="2" y="11" width="2" height="1"/>
    <rect x="10" y="11" width="1" height="1" fill-opacity="0.251"/>
    <rect x="11" y="11" width="10" height="1" fill-opacity="0.502"/>
    <rect x="21" y="11" width="1" height="1" fill-opacity="0.251"/>
    <rect x="28" y="11" width="2" height="1"/>
    <rect x="2" y="12" width="2" height="1"/>
    <rect x="10" y="12" width="1" height="1" fill-opacity="0.502"/>
    <rect x="11" y="12" width="10" height="1"/>
    <rect x="21" y="12" width="1" height="1" fill-opacity="0.502"/>
    <rect x="28" y="12" width="2" height="1"/>
    <rect x="2" y="13" width="2" height="1"/>
    <rect x="10" y="13" width="1" height="1" fill-opacity="0.502"/>
    <rect x="11" y="13" width="10" height="1"/>
    <rect x="21" y="13" width="1" height="1" fill-opacity="0.502"/>
    <rect x="28" y="13" width="2" height="1"/>
    <rect x="2" y="14" width="2" height="1" fill-opacity="0.627"/>
    <rect x="7" y="14" width="1" height="1" fill-opacity="0.063"/>
    <rect x="8" y="14" width="1" height="1" fill-opacity="0.690"/>
    <rect x="9" y="14" width="1" height="1" fill-opacity="0.565"/>
    <rect x="10" y="14" width="1" height="1" fill-opacity="0.502"/>
    <rect x="11" y="14" width="10" height="1"/>
    <rect x="21" y="14" width="1" height="1" fill-opacity="0.502"/>
    <rect x="22" y="14" width="1" height="1" fill-opacity="0.753"/>
    <rect x="23" y="14" width="1" height="1" fill-opacity="0.690"/>
    <rect x="24" y="14" width="1" height="1" fill-opacity="0.063"/>
    <rect x="28" y="14" width="2" height="1" fill-opacity="0.627"/>
    <rect x="7" y="15" width="1" height="1" fill-opacity="0.690"/>
    <rect x="8" y="15" width="1" height="1"/>
    <rect x="9" y="15" width="1" height="1" fill-opacity="0.753"/>
    <rect x="10" y="15" width="1" height="1" fill-opacity="0.502"/>
    <rect x="11" y="15" width="10" height="1"/>
    <rect x="21" y="15" width="1" height="1" fill-opacity="0.502"/>
    <rect x="22" y="15" width="2" height="1"/>
    <rect x="24" y="15" width="1" height="1" fill-opacity="0.627"/>
    <rect x="6" y="16" width="1" height="1" fill-opacity="0.502"/>
    <rect x="7" y="16" width="2" height="1"/>
    <rect x="9" y="16" width="1" height="1" fill-opacity="0.753"/>
    <rect x="10" y="16" width="1" height="1" fill-opacity="0.502"/>
    <rect x="11" y="16" width="10" height="1"/>
    <rect x="21" y="16" width="1" height="1" fill-opacity="0.502"/>
    <rect x="22" y="16" width="3" height="1"/>
    <rect x="25" y="16" width="1" height="1" fill-opacity="0.376"/>
    <rect x="2" y="17" width="2" height="1" fill-opacity="0.627"/>
    <rect x="6" y="17" width="9" height="1" fill-opacity="0.502"/>
    <rect x="15" y="17" width="2" height="1" fill-opacity="0.376"/>
    <rect x="17" y="17" width="9" height="1" fill-opacity="0.502"/>
    <rect x="28" y="17" width="2" height="1" fill-opacity="0.627"/>
    <rect x="2" y="18" width="2" height="1"/>
    <rect x="6" y="18" width="9" height="1"/>
    <rect x="15" y="18" width="2" height="1" fill-opacity="0.753"/>
    <rect x="17" y="18" width="9" height="1"/>
    <rect x="28" y="18" width="2" height="1"/>
    <rect x="2" y="19" width="2" height="1"/>
    <rect x="6" y="19" width="9" height="1"/>
    <rect x="15" y="19" width="2" height="1" fill-opacity="0.753"/>
    <rect x="17" y="19" width="9" height="1"/>
    <rect x="28" y="19" width="2" height="1"/>
    <rect x="2" y="20" width="2" height="1"/>
    <rect x="6" y="20" width="9" height="1"/>
    <rect x="15" y="20" width="2" height="1" fill-opacity="0.753"/>
    <rect x="17" y="20" width="9" height="1"/>
    <rect x="28" y="20" width="2" height="1"/>
    <rect x="2" y="21" width="2" height="1"/>
    <rect x="6" y="21" width="9" height="1"/>
    <rect x="15" y="21" width="2" height="1" fill-opacity="0.753"/>
    <rect x="17" y="21" width="9" height="1"/>
    <rect x="28" y="21" width="2" height="1"/>
    <rect x="2" y="22" width="2" height="1" fill-opacity="0.627"/>
    <rect x="6" y="22" width="9" height="1"/>
    <rect x="15" y="22" width="2" height="1" fill-opacity="0.753"/>
    <rect x="17" y="22" width="9" height="1"/>
    <rect x="28" y="22" width="2" height="1" fill-opacity="0.627"/>
    <rect x="6" y="23" width="9" height="1" fill-opacity="0.251"/>
    <rect x="15" y="23" width="2" height="1" fill-opacity="0.188"/>
    <rect x="17" y="23" width="9" height="1" fill-opacity="0.251"/>
    <rect x="2" y="25" width="2" height="1" fill-opacity="0.627"/>
    <rect x="28" y="25" width="2" height="1" fill-opacity="0.627"/>
    <rect x="2" y="26" width="2" height="1"/>
    <rect x="4" y="26" width="1" height="1" fill-opacity="0.314"/>
    <rect x="27" y="26" width="1" height="1" fill-opacity="0.314"/>
    <rect x="28" y="26" width="2" height="1"/>
    <rect x="2" y="27" width="1" height="1" fill-opacity="0.878"/>
    <rect x="3" y="27" width="1" height="1"/>
    <rect x="4" y="27" width="1" height="1" fill-opacity="0.816"/>
    <rect x="5" y="27" width="1" height="1" fill-opacity="0.314"/>
    <rect x="25" y="27" width="1" height="1" fill-opacity="0.063"/>
    <rect x="26" y="27" width="1" height="1" fill-opacity="0.314"/>
    <rect x="27" y="27" width="1" height="1" fill-opacity="0.816"/>
    <rect x="28" y="27" width="1" height="1"/>
    <rect x="29" y="27" width="1" height="1" fill-opacity="0.878"/>
    <rect x="2" y="28" width="1" height="1" fill-opacity="0.314"/>
    <rect x="3" y="28" width="3" height="1"/>
    <rect x="6" y="28" width="1" height="1" fill-opacity="0.627"/>
    <rect x="9" y="28" width="1" height="1" fill-opacity="0.627"/>
    <rect x="10" y="28" width="4" height="1"/>
    <rect x="14" y="28" width="1" height="1" fill-opacity="0.627"/>
    <rect x="17" y="28" width="1" height="1" fill-opacity="0.627"/>
    <rect x="18" y="28" width="4" height="1"/>
    <rect x="22" y="28" width="1" height="1" fill-opacity="0.627"/>
    <rect x="25" y="28" width="1" height="1" fill-opacity="0.627"/>
    <rect x="26" y="28" width="3" height="1"/>
    <rect x="29" y="28" width="1" height="1" fill-opacity="0.314"/>
    <rect x="3" y="29" width="1" height="1" fill-opacity="0.314"/>
    <rect x="4" y="29" width="1" height="1" fill-opacity="0.878"/>
    <rect x="5" y="29" width="1" height="1"/>
    <rect x="6" y="29" width="1" height="1" fill-opacity="0.627"/>
    <rect x="9" y="29" width="1" height="1" fill-opacity="0.627"/>
    <rect x="10" y="29" width="4" height="1"/>
    <rect x="14" y="29" width="1" height="1" fill-opacity="0.627"/>
    <rect x="17" y="29" width="1" height="1" fill-opacity="0.627"/>
    <rect x="18" y="29" width="4" height="1"/>
    <rect x="22" y="29" width="1" height="1" fill-opacity="0.627"/>
    <rect x="25" y="29" width="1" height="1" fill-opacity="0.627"/>
    <rect x="26" y="29" width="1" height="1"/>
    <rect x="27" y="29" width="1" height="1" fill-opacity="0.878"/>
    <rect x="28" y="29" width="1" height="1" fill-opacity="0.314"/>
  </g>
</svg>