<?xml version="1.0" encoding="utf-8"?>
<!-- Generator: Adobe Illustrator 19.0.0, SVG Export Plug-In . SVG Version: 6.00 Build 0)  -->
<svg height="16" width="16" version="1.1" id="Layer_1" xmlns="http://www.w3.org/2000/svg" x="0px" y="0px"
preserveAspectRatio="xMidYMid meet" viewBox="-18.75 -12.75 337.5 229.5" xml:space="preserve">
<style type="text/css">
.st0{fill:#4CB1FF;}
</style>
<path id="XMLID_145_" class="st0" d="M202.9,0.1L231.7,35H65.9L94.8,0.1C94.9,0.1,95,0,95.2,0h107.1C202.6,0,202.7,0.1,202.9,0.1z
M266.3,85.7h-18.2v31.9c0,0.2,0,0.5,0,0.6h45.1L266.8,86C266.7,85.9,266.5,85.7,266.3,85.7z M48.8,85.7H32c-0.2,0-0.4,0.1-0.5,0.2
L4.9,118.3h43.9c0-0.2,0-0.5,0-0.6V85.7z M236,47.1H61.6v71.3H236V47.1z M143.9,130.4H0V204h143.9V130.4z M300,130.4H156.1V204H300
V130.4z"/>
</svg>