<?xml version="1.0" encoding="utf-8"?>
<!-- Generator: Adobe Illustrator 19.0.0, SVG Export Plug-In . SVG Version: 6.00 Build 0)  -->
<svg height="16" width="16" version="1.1" id="Layer_1" xmlns="http://www.w3.org/2000/svg" x="0px" y="0px"
preserveAspectRatio="xMidYMid meet" viewBox="-18.75 -16.875 337.5 303.75" xml:space="preserve">
<style type="text/css">
.st0{fill:#2FAA09;}
</style>
<path id="XMLID_235_" class="st0" d="M32,145.2c-2.2,2.3-3.3,5.3-3.3,8.5v113.9c0,0.2,0,0.5,0,0.7c-18.3-1.5-28.3-7.5-28.6-10.5
L21,3.6c1.2-1,6.6-3.6,16.5-3.6c9.8,0,15.2,2.5,16.4,3.6l9.6,103L32,145.2z M262.3,0c-9.9,0-15.3,2.5-16.5,3.6l-9.3,103l31.6,38.7
c2.1,2.3,3.3,5.3,3.3,8.4v113.9c0,0.2,0,0.5,0,0.7c18.3-1.6,28.3-7.5,28.6-10.4L278.9,3.6C277.7,2.5,272.2,0,262.3,0z M256.6,149.2
l-29.2-36.7c-0.2-0.2-0.5-0.2-0.8-0.2H74.4c-0.2,0-0.6,0.1-0.8,0.2l-29.2,36.7H256.6z M40.4,268.8V160.2h220.3v108.7
c0,0.7-0.6,1.2-1.2,1.2h-218C41,270,40.4,269.4,40.4,268.8z M189.5,233.3h38.2v-49h-38.2V233.3L189.5,233.3z M130.4,233.3h38.1v-49
h-38.1V233.3z M69.5,233.3h38.2v-49H69.5V233.3z"/>
</svg>