<?xml version="1.0" encoding="utf-8"?>
<!-- Generator: Adobe Illustrator 19.0.0, SVG Export Plug-In . SVG Version: 6.00 Build 0)  -->
<svg height="16" width="16" version="1.1" id="Layer_10_copy_7" xmlns="http://www.w3.org/2000/svg" x="0px"
	 y="0px" preserveAspectRatio="xMidYMid meet" viewBox="-112.475 205.58125 278.55 275.7375" xml:space="preserve">
<style type="text/css">
	.st0{fill:#4CB1FF;}
</style>
<path id="XMLID_29_" class="st0" d="M150.6,447.7l-44.4-150.2H71.9c5.4-9.7,7.8-21.4,5.8-33.7c-3.7-22.4-22.3-40.1-44.9-42.6
	c-31.1-3.5-57.6,20.8-57.6,51.2c0,9.1,2.4,17.6,6.5,25h-34.3L-97,447.6c0.2,0,39.7,18.4,123.8,18.4
	C111,466.1,150.5,447.7,150.6,447.7z M26.8,247.8c13.6,0,24.7,11.1,24.7,24.7s-11.1,24.7-24.7,24.7S2.1,286.1,2.1,272.5
	C2.2,258.8,13.2,247.8,26.8,247.8z M26.8,445.5c-35.2,0-63.7-28.5-63.7-63.7s28.5-63.7,63.7-63.7s63.7,28.5,63.7,63.7
	C90.5,416.9,62,445.5,26.8,445.5z M77.8,381.8h-51v-51C55,330.7,77.8,353.6,77.8,381.8z M-24.2,381.8h51v51
	C-1.4,432.8-24.2,410-24.2,381.8z"/>
</svg>