<?xml version="1.0" encoding="utf-8"?>
<!-- Generator: Adobe Illustrator 19.0.0, SVG Export Plug-In . SVG Version: 6.00 Build 0)  -->
<svg height="16" width="16" version="1.1" id="Layer_10_copy_7" xmlns="http://www.w3.org/2000/svg" x="0px"
	 y="0px" preserveAspectRatio="xMidYMid meet" viewBox="-111.44375 206.575 259.9875 257.85" xml:space="preserve">
<style type="text/css">
	.st0{fill:#2FAA09;}
</style>
<path id="XMLID_20_" class="st0" d="M118.2,322.4H45.8v9.7h36.4c4.4,0,7.9,3.6,7.9,7.9v92.4c0,4.4-3.6,7.9-7.9,7.9H45.1
	c-0.8,3.5-2.2,6.8-4.1,9.7h77.1c8.7,0,15.9-7.1,15.9-15.9v-95.9C134.1,329.5,127,322.4,118.2,322.4z M111.4,400.8
	c-7.3,0-13.3-6-13.3-13.3s6-13.3,13.3-13.3s13.3,6,13.3,13.3C124.7,394.9,118.7,400.8,111.4,400.8z M31.3,440.4
	c0.8-1.9,1.3-4,1.3-6.2V236.8c0-8.7-7.1-15.9-15.9-15.9h-95.9c-8.7,0-15.9,7.1-15.9,15.9v197.4c0,8.7,7.1,15.9,15.9,15.9h95.9
	C23.3,450,28.9,446,31.3,440.4z M-85.4,398.2V253c0-4.4,3.6-7.9,7.9-7.9H15c4.4,0,7.9,3.6,7.9,7.9v145.2c0,4.4-3.6,7.9-7.9,7.9
	h-85.9h-6.6C-81.8,406.1-85.4,402.5-85.4,398.2z M-32.6,440.6c-0.9,0-1.7-0.1-2.6-0.3c-6.1-1.2-10.7-6.6-10.7-13.1
	c0-7.3,6-13.3,13.3-13.3s13.3,6,13.3,13.3c0,6.5-4.6,11.9-10.7,13.1C-30.8,440.5-31.7,440.6-32.6,440.6z M-63,332.1h-11.6v-9.7H12
	v9.7H-63z"/>
</svg>