<?xml version="1.0" encoding="utf-8"?>
<!-- Generator: Adobe Illustrator 19.0.0, SVG Export Plug-In . SVG Version: 6.00 Build 0)  -->
<svg height="16" width="16" version="1.1" id="Layer_1" xmlns="http://www.w3.org/2000/svg" x="0px" y="0px"
preserveAspectRatio="xMidYMid meet" viewBox="-16 -18.75 288 337.5" xml:space="preserve">
<style type="text/css">
.st0{fill:#2FAA09;}
</style>
<path id="XMLID_178_" class="st0" d="M67.1,4.8l11.2,90.9l-38.5,48.1c-2.5,2.7-3.9,6.4-3.9,10.2v141.8c0,0.5,0,1,0.1,1.6
c-23.5-2-35.7-9.7-36-13.7L25.6,4.8c1.2-1.3,8-4.8,20.8-4.8C59.3,0,66.1,3.7,67.1,4.8z M213.4,101.7c-0.4-0.4-0.9-0.5-1.4-0.5H92.5
c-0.5,0-1,0.3-1.4,0.5l-37.5,46.4h197.2L213.4,101.7z M256,161.7v136.2c0,1.2-0.9,2.1-2.1,2.1H51.7c-1.2,0-2.1-0.9-2.1-2.1V161.7
H256z M209.8,191.7h-47.7v61.7h47.7V191.7z M134,191.7H86.3v61.7H134V191.7z"/>
</svg>