<?xml version="1.0" encoding="utf-8"?>
<!-- Generator: Adobe Illustrator 19.0.0, SVG Export Plug-In . SVG Version: 6.00 Build 0)  -->
<svg height="16" width="16" version="1.1" id="Layer_1" xmlns="http://www.w3.org/2000/svg" x="0px" y="0px"
preserveAspectRatio="xMidYMid meet" viewBox="-18.75 -14.875 337.5 267.75" xml:space="preserve">
<style type="text/css">
.st0{fill:#2FAA09;}
</style>
<g id="XMLID_239_">
<path class="st0" d="M279.4,52.2H174.1V34h-12.4V0h-23.3v34h-12.6v18.2H20.6C9.2,52.2,0,61.5,0,72.9v144.4
C0,228.7,9.2,238,20.6,238h258.8c11.4,0,20.6-9.3,20.6-20.6V72.9C300,61.5,290.8,52.2,279.4,52.2z M125.9,151.2
c0,4.7-3.7,8.4-8.4,8.4H91.6v26c0,4.7-3.7,8.4-8.4,8.4h-8.7c-4.7,0-8.4-3.7-8.4-8.4v-26H40.3c-4.7,0-8.4-3.7-8.4-8.4v-8.8
c0-4.7,3.7-8.4,8.4-8.4h25.9v-26c0-4.7,3.7-8.4,8.4-8.4h8.7c4.7,0,8.4,3.7,8.4,8.4v26h25.9c4.7,0,8.4,3.7,8.4,8.4v8.8H125.9z
M178,167.2c-11.3,0-20.6-9.2-20.6-20.6s9.2-20.6,20.6-20.6c11.3,0,20.6,9.2,20.6,20.6C198.6,158,189.3,167.2,178,167.2z
M240.5,167.8c-11.3,0-20.6-9.2-20.6-20.6c0-11.4,9.2-20.6,20.6-20.6c11.3,0,20.6,9.2,20.6,20.6S251.7,167.8,240.5,167.8z"/>
</g>
</svg>