<?xml version="1.0" encoding="utf-8"?>
<!-- Generator: Adobe Illustrator 19.0.0, SVG Export Plug-In . SVG Version: 6.00 Build 0)  -->
<svg height="16" width="16" version="1.1" id="Layer_1" xmlns="http://www.w3.org/2000/svg" x="0px" y="0px"
preserveAspectRatio="xMidYMid meet" viewBox="-18.75 -18.75 337.5 337.5" xml:space="preserve">
<style type="text/css">
.st0{fill:#4CB1FF;}
</style>
<path class="st0" d="M88,97.4l12.2-16.5v16.6L88,97.4z M0,0h300v300H0V0z M247.4,223.1H41.7v12.6h205.7L247.4,223.1L247.4,223.1z
M247.4,184.4H41.7V197h205.7L247.4,184.4L247.4,184.4z M247.4,145.7H41.7v12.6h205.7L247.4,145.7L247.4,145.7z M143.8,80.8h103.6
V68.2H143.8C143.8,68.2,143.8,80.8,143.8,80.8z M143.8,119.6h103.6V107H143.8C143.8,107,143.8,119.6,143.8,119.6z M41.6,126.3h24.7
l10.1-13.2h23.7l0.1,13.2h20l-0.1-68.7h-25L41.6,126.3z"/>
</svg>