<?xml version="1.0" encoding="utf-8"?>
<!-- Generator: Adobe Illustrator 19.0.0, SVG Export Plug-In . SVG Version: 6.00 Build 0)  -->
<svg height="16" width="16" version="1.1" id="Layer_1" xmlns="http://www.w3.org/2000/svg" x="0px" y="0px"
preserveAspectRatio="xMidYMid meet" viewBox="-18.75 -9.875 337.5 177.75" xml:space="preserve">
<style type="text/css">
.st0{fill:#2FAA09;}
</style>
<path id="XMLID_187_" class="st0" d="M181.9,130.6h-55.7c-10.7,0-20.7-4.2-28.3-11.7c-7.6-7.6-11.7-17.7-11.7-28.4v-9.3l0,0V67.8
v-0.7c0.1-10.6,4.3-20.5,11.7-27.9c7.6-7.6,17.6-11.7,28.3-11.7h55.7C181.9,27.4,181.9,130.6,181.9,130.6z M208.3,158H124
c-16.4,0-32.8-6.3-45.3-18.7c-9.1-9.1-14.8-20.1-17.3-31.9H40V92.7H0V65.3h40V50.6h21.3c2.4-11.6,8.3-22.8,17.3-31.9
C91,6.3,107.4,0,124,0l0,0h84.3V158z M191.3,139.9V18h-65l0,0c-12.7,0-25.2,4.8-34.9,14.4C82,42,77.1,54.4,77,66.9l0,0v23.4l0,0
c0,12.7,4.8,25.3,14.4,35c9.7,9.6,22.2,14.4,34.9,14.4h65V139.9z M300,139.3h-80.9V18.6H300V139.3z M237.1,61.3h43.1V40h-43.1V61.3z
M280.2,117.9V96.6h-43.1v21.3H280.2z"/>
</svg>