<?xml version="1.0" encoding="utf-8"?>
<!-- Generator: Adobe Illustrator 19.0.0, SVG Export Plug-In . SVG Version: 6.00 Build 0)  -->
<svg height="16" width="16" version="1.1" id="Layer_1" xmlns="http://www.w3.org/2000/svg" x="0px" y="0px"
preserveAspectRatio="xMidYMid meet" viewBox="-18.75 -18.75 337.5 337.5" xml:space="preserve">
<style type="text/css">
.st0{fill:#4CB1FF;}
</style>
<path class="st0" d="M150,0C67.2,0,0,67.2,0,150s67.2,150,150,150s150-67.2,150-150S232.8,0,150,0z M150,277.4
c-70.2,0-127.4-57.1-127.4-127.4C22.6,79.8,79.8,22.6,150,22.6S277.4,79.8,277.4,150S220.2,277.4,150,277.4z M248.9,114.4
c0,42.9-44.2,77.6-98.9,77.6s-98.9-34.8-98.9-77.6S95.4,36.8,150,36.8S248.9,71.5,248.9,114.4z"/>
</svg>