<?xml version="1.0" encoding="utf-8"?>
<!-- Generator: Adobe Illustrator 19.0.0, SVG Export Plug-In . SVG Version: 6.00 Build 0)  -->
<svg height="16" width="16" version="1.1" id="Layer_1" xmlns="http://www.w3.org/2000/svg" x="0px" y="0px"
preserveAspectRatio="xMidYMid meet" viewBox="-16.375 -18.75 294.75 337.5" xml:space="preserve">
<style type="text/css">
.st0{fill:#4CB1FF;}
</style>
<path class="st0" d="M38.9,100L0,196.4V87.2c0-1.6,0.1-3.2,0.5-4.6L38.9,100z M199.6,90L131.1,0c-0.1,0-0.3,0-0.4,0l-70,90H199.6z
M254.1,71.3c-0.5-0.4-1.2-0.8-1.8-1.2l-95.2-57.8L215,88.6L254.1,71.3z M58.6,103.2l72.3,127l70.7-127L58.6,103.2L58.6,103.2z
M143.1,235.5l115.8-13.9l-46.8-110L143.1,235.5z M48.3,111.7L4.2,221.4l114.8,14.1L48.3,111.7z M120.7,298.2
c1.2,0.8,2.5,1.3,3.8,1.8v-50.7L20.8,236.7L120.7,298.2z M9.7,70c-0.7,0.4-1.3,0.8-2,1.3l37.6,17.2L104,12.9L9.7,70z M221.4,100
l40.6,95.4V87.2c0-1.6-0.3-3.2-0.5-4.7L221.4,100z M240.6,237l-103.1,12.4V300c1.3-0.5,2.6-1.1,3.8-1.8L240.6,237z"/>
</svg>