<?xml version="1.0" encoding="utf-8"?>
<!-- Generator: Adobe Illustrator 19.0.0, SVG Export Plug-In . SVG Version: 6.00 Build 0)  -->
<svg height="16" width="16" version="1.1" id="Layer_1" xmlns="http://www.w3.org/2000/svg" x="0px" y="0px"
preserveAspectRatio="xMidYMid meet" viewBox="-18.75 -14.75 337.5 265.5" xml:space="preserve">
<style type="text/css">
.st0{fill:#4CB1FF;}
</style>
<g>
<path class="st0" d="M69.4,191.7L0,153.5l42.8-23.6c7.5,10.4,19.5,16.6,32.5,16.6c10.8,0,21.2-4.4,28.7-12.1l34.7,19.2L69.4,191.7z
M176.1,132.9c-0.2-1.2-0.3-2.4-0.3-3.4c0-11.6,9.5-20.9,21.1-20.9c5.2,0,10.1,1.9,13.9,5.3l8.5-4.7L149.9,71l-37.7,20.7
c2,4.8,3,9.8,3,15c0,6.6-1.7,13.1-4.7,18.8l39.5,21.7L176.1,132.9z M80.6,197.8L150,236l69.4-38.2L150,159.7L80.6,197.8z
M300,153.5l-69.4-38.2l-13.8,7.6c0.7,2.2,1.1,4.4,1.1,6.7c0,11.6-9.5,20.9-21.1,20.9c-6.2,0-12.2-2.9-16.3-7.7l-19.4,10.6
l69.4,38.2L300,153.5z M44.7,106.8c0,16.7,13.6,30.4,30.5,30.4s30.5-13.7,30.5-30.4S92.1,76.4,75.2,76.4S44.7,90,44.7,106.8z
M128.1,41.9c11.5,0,21.1-9.4,21.1-20.9S139.8,0,128.1,0C116.5,0,107,9.4,107,20.9C107.1,32.5,116.5,41.9,128.1,41.9z M185.1,129.5
c0,6.4,5.2,11.7,11.6,11.7c6.4,0,11.6-5.2,11.6-11.7c0-6.4-5.2-11.6-11.6-11.6C190.4,117.8,185.1,123,185.1,129.5z M49.6,28.5
c6.5,0,11.7-5.2,11.7-11.6S56.2,5.2,49.6,5.2C43.2,5.2,38,10.4,38,16.9C37.9,23.4,43.1,28.5,49.6,28.5z M264.8,94.8
c16.7,0,30.2-13.5,30.2-30s-13.5-30-30.2-30s-30.2,13.4-30.2,30C234.6,81.3,248.1,94.8,264.8,94.8z"/>
</g>
</svg>