<?xml version="1.0" encoding="utf-8"?>
<!-- Generator: Adobe Illustrator 19.0.0, SVG Export Plug-In . SVG Version: 6.00 Build 0)  -->
<svg height="16" width="16" version="1.1" id="Layer_1" xmlns="http://www.w3.org/2000/svg" x="0px" y="0px"
preserveAspectRatio="xMidYMid meet" viewBox="-18.75 -18.75 337.5 337.5" xml:space="preserve">
<style type="text/css">
.st0{fill:#4CB1FF;}
</style>
<g>
<path class="st0" d="M269.3,76.3c-4.1-4.1-4.1-10.7,0-14.7c4.1-4.1,10.7-4.1,14.7,0c4.1,4.1,4.1,10.7,0,14.7
C280,80.3,273.4,80.3,269.3,76.3z M294.9,138.5c-6.8-6.8-17.7-6.8-24.4,0c-6.8,6.8-6.8,17.7,0,24.4c6.8,6.8,17.7,6.8,24.4,0
C301.7,156.2,301.7,145.3,294.9,138.5z M269.3,222.4c-4.1,4.1-4.1,10.7,0,14.7c4.1,4.1,10.7,4.1,14.7,0c4.1-4.1,4.1-10.7,0-14.7
C280,218.3,273.4,218.3,269.3,222.4z M138.4,270.5c-6.8,6.8-6.8,17.7,0,24.4c6.8,6.8,17.7,6.8,24.4,0c6.8-6.8,6.8-17.7,0-24.4
C156.2,263.8,145.2,263.8,138.4,270.5z M229.1,182.1c-6.8,6.8-6.8,17.7,0,24.4c6.8,6.8,17.7,6.8,24.4,0c6.8-6.8,6.8-17.7,0-24.4
C246.7,175.3,235.7,175.3,229.1,182.1z M206,74c6.8-6.8,6.8-17.7,0-24.4c-6.8-6.8-17.7-6.8-24.4,0c-6.8,6.8-6.8,17.7,0,24.4
C188.2,80.8,199.2,80.8,206,74z M224.8,266.8c-4.1,4.1-4.1,10.7,0,14.7c4.1,4.1,10.7,4.1,14.7,0s4.1-10.7,0-14.7
C235.5,262.7,228.8,262.7,224.8,266.8z M250.4,118.4c6.8-6.8,6.8-17.7,0-24.4c-6.8-6.8-17.7-6.8-24.4,0c-6.8,6.8-6.8,17.7,0,24.4
C232.7,125.2,243.6,125.2,250.4,118.4z M184.5,226.5c-6.8,6.8-6.8,17.7,0,24.4c6.8,6.8,17.7,6.8,24.4,0c6.8-6.8,6.8-17.7,0-24.4
C202.2,219.8,191.3,219.8,184.5,226.5z M94,226c-6.8,6.8-6.8,17.7,0,24.4c6.8,6.8,17.7,6.8,24.4,0c6.7-6.8,6.8-17.7,0-24.4
C111.7,219.2,100.8,219.2,94,226z M19.4,222.4c-4.1,4.1-4.1,10.7,0,14.7c4.1,4.1,10.7,4.1,14.7,0c4.1-4.1,4.1-10.7,0-14.7
C30.1,218.3,23.5,218.3,19.4,222.4z M74.4,116.5c6.8-6.8,6.8-17.7,0-24.4c-6.8-6.8-17.7-6.8-24.4,0c-6.8,6.8-6.8,17.7,0,24.4
C56.8,123.3,67.7,123.3,74.4,116.5z M19.4,61.5c-4.1,4.1-4.1,10.7,0,14.7c4.1,4.1,10.7,4.1,14.7,0c4.1-4.1,4.1-10.7,0-14.7
C30.1,57.4,23.5,57.4,19.4,61.5z M161.5,29.5c6.8-6.8,6.8-17.7,0-24.4c-6.8-6.8-17.7-6.8-24.4,0c-6.8,6.8-6.8,17.7,0,24.4
C143.8,36.2,154.7,36.2,161.5,29.5z M29.5,161.5c6.8-6.8,6.8-17.7,0-24.4c-6.8-6.8-17.7-6.8-24.4,0c-6.7,6.8-6.8,17.7,0,24.4
C11.7,168.2,22.7,168.2,29.5,161.5z M73.9,206c6.8-6.8,6.8-17.7,0-24.4c-6.8-6.8-17.7-6.8-24.4,0c-6.8,6.8-6.8,17.7,0,24.4
S67.3,212.7,73.9,206z M119,72c6.8-6.8,6.8-17.7,0-24.4c-6.8-6.8-17.7-6.8-24.4,0c-6.8,6.8-6.8,17.7,0,24.4
C101.3,78.7,112.2,78.7,119,72z M239.5,31.7c4.1-4.1,4.1-10.7,0-14.7c-4.1-4-10.7-4.1-14.7,0c-4.1,4.1-4.1,10.7,0,14.7
C228.8,35.8,235.5,35.8,239.5,31.7z M64,266.8c-4.1,4.1-4.1,10.7,0,14.7c4.1,4,10.7,4.1,14.7,0c4.1-4.1,4.1-10.7,0-14.7
C74.5,262.7,68,262.7,64,266.8z M78.7,31.7c4.1-4.1,4.1-10.7,0-14.7C74.5,12.9,68,12.9,64,17c-4,4.1-4.1,10.7,0,14.7
C68.1,35.7,74.5,35.8,78.7,31.7z M216.1,132.9c-4.5-4.5-10.6-7-16.9-7c-6.3,0-12.4,2.6-16.9,7c-9.4,9.4-9.4,24.5,0,33.9
c4.5,4.5,10.6,7,16.9,7c6.3,0,12.4-2.6,16.9-7C225.4,157.4,225.4,142.2,216.1,132.9z M152.3,172.7c-6.4,0-12.4,2.6-16.9,7
c-9.4,9.4-9.4,24.5,0,33.9c4.5,4.5,10.6,7,16.9,7c6.4,0,12.4-2.6,16.9-7c9.4-9.4,9.4-24.5,0-33.9
C164.7,175.3,158.6,172.7,152.3,172.7z M121.2,165.7c4.5-4.5,7-10.6,7-16.9c0-6.3-2.6-12.4-7-16.9c-4.5-4.5-10.6-7-16.9-7
c-6.4,0-12.4,2.6-16.9,7c-9.4,9.4-9.4,24.5,0,33.9c4.5,4.5,10.6,7,16.9,7C110.7,172.7,116.7,170.3,121.2,165.7z M151.2,125.8
c6.4,0,12.4-2.6,16.9-7c9.4-9.4,9.4-24.5,0-33.9c-4.5-4.5-10.6-7-16.9-7c-6.4,0-12.4,2.6-16.9,7c-4.5,4.5-7,10.6-7,16.9
c0,6.4,2.6,12.4,7,16.9C138.8,123.3,144.9,125.8,151.2,125.8z"/>
</g>
</svg>