<?xml version="1.0" encoding="utf-8"?>
<!-- Generator: Adobe Illustrator 19.0.0, SVG Export Plug-In . SVG Version: 6.00 Build 0)  -->
<svg height="16" width="16" version="1.1" id="Layer_1" xmlns="http://www.w3.org/2000/svg" x="0px" y="0px"
preserveAspectRatio="xMidYMid meet" viewBox="-18.75 -16.625 337.5 299.25" xml:space="preserve">
<style type="text/css">
.st0{fill:#2FAA09;}
</style>
<path class="st0" d="M239.4,246.1c0,5.5-27.5,19.9-89.3,19.9s-89.3-14.4-89.3-19.9c0-0.9,1.4-3.1,6.4-6h165.9
C238,243,239.4,245.2,239.4,246.1z M300,12.1v203.5c0,6.7-5.5,12.1-12,12.1H12c-6.7,0-12-5.5-12-12.1V12.1C0,5.5,5.5,0,12,0h275.8
C294.5,0,300,5.5,300,12.1z M213.3,87.8c0-5.5-3-10.6-7.7-13.3l-48.7-28.2c-4.6-2.6-10.8-2.6-15.2,0L92.9,74.5
c-4.7,2.7-7.7,7.8-7.7,13.3v56.4c0,5.5,3,10.6,7.7,13.3l48.7,28.2c2.4,1.4,5,2.1,7.7,2.1c2.7,0,5.3-0.7,7.7-2.1l48.7-28.2
c4.7-2.7,7.7-7.8,7.7-13.3V87.8H213.3z M147.7,56.9L99.3,85.1l48.5,27.7c0.9,0.5,2,0.5,3,0l48.5-27.7l-48.5-28.2
C149.8,56.4,148.6,56.4,147.7,56.9z M97.5,98.4v45.7c0,1,0.6,2,1.5,2.6l44.1,25.5v-48c-0.5-0.2-1-0.5-1.4-0.7L97.5,98.4z
M155.4,172.3l44.1-25.5c0.9-0.5,1.5-1.5,1.5-2.6V98.4l-44.1,25.2c-0.4,0.2-0.9,0.5-1.4,0.7L155.4,172.3L155.4,172.3z"/>
</svg>