<?xml version="1.0" encoding="utf-8"?>
<!-- Generator: Adobe Illustrator 19.0.0, SVG Export Plug-In . SVG Version: 6.00 Build 0)  -->
<svg height="16" width="16" version="1.1" id="Layer_1" xmlns="http://www.w3.org/2000/svg" x="0px" y="0px"
preserveAspectRatio="xMidYMid meet" viewBox="-18.75 -18.75 337.5 337.5" xml:space="preserve">
<style type="text/css">
.st0{fill:#E6B711;}
</style>
<path id="XMLID_145_" class="st0" d="M265.6,54.5c-5.9-7.6-12.9-14.4-20.2-20.3c-2.5-2-5.6-3.1-9-3.1c-3,0-5.9,1-8.2,2.9
c-6.9,5.4-20.3,15.8-20.3,15.8l-0.1,0.1c-3.6,2-6.9,3-10.1,3c-8.7,0-15.9-6.1-17.6-14.8l-3.1-25.3c-0.9-6.3-6-11.4-12.5-12.3
c-9.6-0.9-19.2-0.9-28.6,0c-6.4,0.9-11.6,5.9-12.5,12.3l-3.1,25.3c-1.4,8.6-9,14.9-17.6,14.9c-3.7,0-7.5-1.1-10.9-3.4L71.8,34
c-2.2-1.9-5.1-2.9-8.2-2.9c-3.2,0-6.4,1.1-8.9,3.1c-7.5,5.9-14.4,12.9-20.2,20.3c-4.2,4.9-4.4,12.1-0.4,17l15.2,19.8
c2.4,3.1,3.7,6.8,3.7,10.6c0,9.1-6.5,16.5-15.6,17.9l-24.6,3.1c-6.4,0.9-11.6,6.1-12.2,12.5c-0.9,9.8-0.9,19.3,0,28.8
c0.9,6.4,5.9,11.6,12.2,12.5l24.6,3.1c9,1,15.6,8.8,15.6,17.5c0,4-1.2,7.8-3.7,10.9L34.2,228c-4,4.9-3.9,12.1,0.2,17
c5.9,7.6,12.9,14.4,20.2,20.3c2.7,2.1,5.6,3.1,8.7,3.1c3.2,0,6.2-1,8.4-2.9l19.7-15.3c3.4-2.3,7.1-3.4,10.9-3.4
c8.7,0,16.4,6.4,17.6,14.9v0.3c0,0.6,1.9,15.3,3.1,25.1c0.9,6.3,6,11.4,12.5,12.3c4.9,0.4,9.9,0.6,14.4,0.6c4.6,0,9.5-0.3,14.5-0.6
c6.4-0.9,11.6-5.9,12.5-12.3l3.1-25.3c1.7-8.9,9.1-14.9,17.6-14.9c3.9,0,7.5,1.1,10.2,3.1l20.2,16.1c2.1,1.9,5.1,2.9,8.5,2.9
c3.5,0,6.1-1,8.7-3.1c7.5-6,14.5-12.9,20.2-20.3c4.1-5,4.2-12.3,0.4-17c-12-15.4-15-19.5-15.9-20.8l0,0c-2-2.6-3.1-6.1-3.1-10
c0-8.6,6-15.9,14.2-17.5c0.2,0,17.6-2.3,26-3.1c6.2-0.9,11.4-6,12.2-12.5c0.9-9.8,0.9-19.3,0-28.8c-0.9-6.4-5.9-11.6-12.2-12.5
c-8.5-0.9-25.6-3.1-25.8-3.1h-0.1c-8.5-2.1-14.2-9.5-14.2-17.9c0-3.5,1.1-6.9,3.1-9.6l0,0c0.7-1.3,3.9-5.4,15.7-20.8
C269.9,66.8,269.8,59.5,265.6,54.5z M150.3,202.8c-29,0-52.5-23.6-52.5-52.6s23.6-52.6,52.5-52.6s52.5,23.6,52.5,52.6
C202.9,179.3,179.1,202.8,150.3,202.8z"/>
</svg>