<?xml version="1.0" encoding="utf-8"?>
<!-- Generator: Adobe Illustrator 19.0.0, SVG Export Plug-In . SVG Version: 6.00 Build 0)  -->
<svg height="16" width="16" version="1.1" id="Layer_1" xmlns="http://www.w3.org/2000/svg" x="0px" y="0px"
preserveAspectRatio="xMidYMid meet" viewBox="-18.75 -18.75 337.5 337.5" xml:space="preserve">
<style type="text/css">
.st0{fill:#E6B711;}
</style>
<path id="XMLID_145_" class="st0" d="M287.2,123.2c-8.4-0.9-25.7-3.1-25.9-3.1h-0.1c-8.4-2.1-14.1-9.4-14.1-17.9
c0-3.5,1.1-6.9,3.1-9.5l0,0c0.8-1.4,3.9-5.4,15.6-20.9c4-4.9,3.9-11.9-0.3-16.9c-5.9-7.5-12.8-14.3-20.4-20.4
c-2.5-2-5.6-3.1-8.9-3.1c-3,0-5.9,1-8.1,2.9c-6.9,5.4-20.5,15.8-20.5,15.8l-0.1,0.1c-3.6,2-6.9,3-10,3c-8.6,0-15.9-6.1-17.6-14.9
l-3.1-25.4c-0.9-6.3-6-11.3-12.4-12.1c-4.8-0.5-9.6-0.8-14.4-0.8l0,0c-4.8,0-9.5,0.3-14.1,0.8c-6.4,0.9-11.5,5.9-12.4,12.1
l-3.1,25.3c-1.4,8.5-8.9,14.9-17.8,14.9c-3.8,0-7.5-1.1-10.8-3.4L71.6,34.1c-2.3-1.9-5.1-2.9-8.1-2.9c-3.3,0-6.4,1.1-8.8,3.1
c-7.5,5.9-14.3,12.8-20.4,20.4c-4.3,4.9-4.4,12-0.4,16.9l15.3,20c2.4,3.1,3.8,6.8,3.8,10.5c0,9-6.5,16.5-15.5,17.9l-24.7,3.1
c-6.4,0.9-11.5,6.1-12.1,12.4c-0.9,9.6-0.9,19.4,0,28.8c0.9,6.4,5.9,11.5,12.1,12.4l24.7,3.1c8.9,1,15.5,8.6,15.5,17.6
c0,4-1.3,7.8-3.8,10.9l-15,19.9c-4,4.9-3.9,11.9,0.3,17c5.9,7.5,12.8,14.3,20.4,20.4c2.8,2.1,5.6,3.1,8.6,3.1c3.3,0,6.3-1,8.3-2.9
l19.9-15.5c3.4-2.3,7.1-3.4,10.9-3.4c8.6,0,16.4,6.4,17.8,14.9v0.3c0,0.6,1.9,15.3,3.1,25.1c0.9,6.3,6,11.3,12.4,12.1
c4.9,0.4,9.8,0.6,14.3,0.6s9.4-0.3,14.4-0.6c6.4-0.9,11.5-5.9,12.4-12.1L180,262c1.8-8.9,9-14.9,17.8-14.9c3.9,0,7.5,1.1,10.1,3.1
l20.5,15.8c2.1,1.9,5.1,2.9,8.4,2.9c3.5,0,6.1-1,8.6-3.1c7.5-6,14.4-12.8,20.4-20.4c4.1-5,4.3-12.1,0.4-16.9
c-11.9-15.3-14.9-19.5-15.9-20.9l0,0c-2-2.6-3.1-6.1-3.1-9.9c0-8.5,6-15.9,14.1-17.5c0.3,0,17.6-2.3,26-3.1c6.3-0.9,11.1-6,12-12.4
c0.9-9.6,0.9-19.4,0-28.8C298.5,129.2,293.6,124.1,287.2,123.2z M149.9,202.6c-29,0-52.7-23.6-52.7-52.5c0-29,23.6-52.5,52.7-52.5
s52.7,23.6,52.7,52.5S179,202.6,149.9,202.6z M178.8,149.9c0,15.9-12.9,28.9-28.9,28.9S121,165.9,121,149.9
c0-15.9,12.9-28.9,28.9-28.9S178.8,134.1,178.8,149.9z"/>
</svg>