<?xml version="1.0" encoding="utf-8"?>
<!-- Generator: Adobe Illustrator 19.0.0, SVG Export Plug-In . SVG Version: 6.00 Build 0)  -->
<svg height="16" width="16" version="1.1" id="Layer_1" xmlns="http://www.w3.org/2000/svg" x="0px" y="0px"
preserveAspectRatio="xMidYMid meet" viewBox="-18.75 -17.75 337.5 319.5" xml:space="preserve">
<style type="text/css">
.st0{fill:#2FAA09;}
</style>
<path class="st0" d="M147.1,31.5v219.7c0,1.1-1,1.7-1.7,1.7c-0.4,0-0.6-0.1-1-0.2L41.7,183.2H15c-8.3,0-15-6.7-15-15.1v-37.9
c0-8.3,6.7-15.1,15-15.1h27.1l102.3-85.1c0.4-0.2,0.6-0.4,1-0.4C145.9,29.8,147.1,30,147.1,31.5z M241.9,1.9
c-1.1-1.1-2.7-1.9-4.3-1.9s-3.2,0.6-4.3,1.9c-1.1,1.1-1.9,2.7-1.9,4.3s0.6,3.2,1.9,4.3c35.2,35.1,54.5,81.7,54.5,131.5
s-19.3,96.3-54.5,131.5c-1.1,1.1-1.9,2.7-1.9,4.3s0.6,3.2,1.9,4.3c1.1,1.1,2.7,1.9,4.3,1.9s3.2-0.6,4.3-1.9
C279.4,244.7,300,195,300,142S279.3,39.3,241.9,1.9z M213.7,69.4c-1.1-1.1-2.7-1.9-4.3-1.9c-1.6,0-3.2,0.6-4.3,1.9
c-2.5,2.3-2.5,6.3,0,8.8c17.1,17,26.5,39.6,26.5,63.8c0,24.1-9.4,46.8-26.5,63.8c-1.1,1.1-1.9,2.7-1.9,4.3c0,1.6,0.6,3.2,1.9,4.3
c1.1,1.1,2.7,1.9,4.3,1.9c1.6,0,3.2-0.6,4.3-1.9c19.5-19.4,30.1-45.2,30.1-72.6C243.8,114.7,233.1,88.8,213.7,69.4z"/>
</svg>