<?xml version="1.0" encoding="utf-8"?>
<!-- Generator: Adobe Illustrator 19.0.0, SVG Export Plug-In . SVG Version: 6.00 Build 0)  -->
<svg height="16" width="16" version="1.1" id="Layer_1" xmlns="http://www.w3.org/2000/svg" x="0px" y="0px"
preserveAspectRatio="xMidYMid meet" viewBox="-13.75 -18.75 247.5 337.5" xml:space="preserve">
<style type="text/css">
.st0{fill:#4CB1FF;}
</style>
<path id="XMLID_145_" class="st0" d="M36.5,172.9c4.9,28.3,15.9,58.2,22.8,75.2c-19.1,10-25.2,20.8-24.4,51.9c0,0-41.7-57-34-89.6
C6.6,186.9,26,176.8,36.5,172.9z M183.5,172.9c-4.9,28.3-15.9,58.2-22.8,75.2c19.1,10,25.2,20.8,24.4,51.9c0,0,41.7-57,34-89.6
C213.4,186.9,194,176.8,183.5,172.9z M168.7,146.9c0,46.9-31.2,115-31.2,115H121c-1,4.2-11,37.9-11,37.9l-11-38
c-8.1,0-16.5,0-16.5,0s-31.2-68-31.2-114.9S70.9,66,98.4,40.4L110,0l11.6,40.4C149.1,66,168.7,100,168.7,146.9z M143.4,130.5
c0-18.6-14.9-33.5-33.4-33.5s-33.4,15.1-33.4,33.5c0,18.6,14.9,33.5,33.4,33.5S143.4,149.1,143.4,130.5z"/>
</svg>