<?xml version="1.0" encoding="utf-8"?>
<!-- Generator: Adobe Illustrator 19.0.0, SVG Export Plug-In . SVG Version: 6.00 Build 0)  -->
<svg height="16" width="16" version="1.1" id="Layer_1" xmlns="http://www.w3.org/2000/svg" x="0px" y="0px"
preserveAspectRatio="xMidYMid meet" viewBox="-18.75 -13.125 337.5 236.25" xml:space="preserve">
<style type="text/css">
.st0{fill:#4CB1FF;}
</style>
<path class="st0" d="M172.6,74.5l-37.2-37.3L172.6,0l37.2,37.3L172.6,74.5z M300,127.5l-37.2-37.3l-37.2,37.3l37.2,37.3L300,127.5z
M254.8,82.4l-37.2-37.3l-37.2,37.3l37.2,37.3L254.8,82.4z M223,140.9v63.8l31.8-31.9L223,140.9z M90.2,172.7l37.2,37.3l37.2-37.3
l-37.2-37.3L90.2,172.7z M90.2,82.4l37.2,37.3l37.2-37.3l-37.2-37.3L90.2,82.4z M119.6,127.5L82.4,90.2l-37.2,37.3l37.2,37.3
L119.6,127.5z M135.4,127.5l37.2,37.3l37.2-37.3l-37.2-37.3L135.4,127.5z M74.4,82.4L37.2,45.1L0,82.4l37.2,37.3L74.4,82.4z
M119.6,37.3L82.4,0L45.2,37.3l37.2,37.3L119.6,37.3z"/>
</svg>