<?xml version="1.0" encoding="utf-8"?>
<!-- Generator: Adobe Illustrator 19.0.0, SVG Export Plug-In . SVG Version: 6.00 Build 0)  -->
<svg height="16" width="16" version="1.1" id="Layer_1" xmlns="http://www.w3.org/2000/svg" x="0px" y="0px"
preserveAspectRatio="xMidYMid meet" viewBox="-18.75 -18.75 337.5 337.5" xml:space="preserve">
<style type="text/css">
.st0{fill:#E6B711;}
</style>
<path class="st0" d="M61.1,69.8l169.2,168.7c-6.1,7.7-9.5,17.1-9.7,27H79.4c-0.6-24.3-20.4-44-44.7-44.6V79.2
C44.4,78.9,53.4,75.8,61.1,69.8z M266.2,220.8V79.2c-24.8-0.1-45-19.9-45.6-44.6H79.4c-0.3,9.6-3.5,18.8-9.3,26.5l169.3,168.8
C247.2,224,256.5,220.8,266.2,220.8z M266.6,233.3c-18.4,0-33.4,15-33.4,33.3c0,18.4,15,33.3,33.4,33.3c18.4,0,33.4-15,33.4-33.3
S285,233.3,266.6,233.3z M33.4,66.7c18.4,0,33.4-15,33.4-33.4S51.8,0,33.4,0S0,15,0,33.3S15,66.7,33.4,66.7z M266.6,66.7
c18.4,0,33.4-15,33.4-33.3S285,0,266.6,0c-18.4,0-33.4,15-33.4,33.3S248.2,66.7,266.6,66.7z M33.4,233.3C15,233.3,0,248.3,0,266.7
C0,285,15,300,33.4,300s33.4-15,33.4-33.3C66.8,248.3,51.8,233.3,33.4,233.3z"/>
</svg>